[Header]
FileType HTR
DataType HTRS
FileVersion 1
NumSegments 22
NumFrames 5
DataFrameRate 24
EulerRotationOrder ZYX
CalibrationUnits mm
RotationUnits Degrees
GlobalAxisofGravity Y
BoneLengthAxis Y
ScaleFactor 1.0
[SegmentNames&Hierarchy]
reference	GLOBAL
Hips	reference
Spine	Hips
Spine1	Spine
Neck	Spine1
Head	Neck
LeftShoulder	Spine1
LeftArm	LeftShoulder
LeftForeArm	LeftArm
LeftHand	LeftForeArm
RightShoulder	Spine1
RightArm	RightShoulder
RightForeArm	RightArm
RightHand	RightForeArm
LeftUpLeg	Hips
LeftLeg	LeftUpLeg
LeftFoot	LeftLeg
LeftToeBase	LeftFoot
RightUpLeg	Hips
RightLeg	RightUpLeg
RightFoot	RightLeg
RightToeBase	RightFoot
[BasePosition]
reference	0	0	0	0	0	0	1
Hips	0	0	0	0	0	0	1
Spine	0	0	0	0	-0	90	1
Spine1	0	0	0	0	0	0	1
Neck	0	0	0	-7.352430803	-7.352430803	90	1
Head	0	0	0	0	-0	90	1
LeftShoulder	0	0	0	0	0	0	1
LeftArm	0	0	0	0	0	0	1
LeftForeArm	0	0	0	0	0	0	1
LeftHand	0	0	0	0	0	0	1
RightShoulder	0	0	0	0	-0	180	1
RightArm	0	0	0	0	-0	180	1
RightForeArm	0	0	0	0	-0	180	1
RightHand	0	0	0	0	-0	180	1
LeftUpLeg	0	0	0	0	-0	-90	1
LeftLeg	0	0	0	0	-0	-90	1
LeftFoot	0	0	0	66.57150701	-66.57150701	-90	1
LeftToeBase	0	0	0	0	-90	0	1
RightUpLeg	0	0	0	0	-0	-90	1
RightLeg	0	0	0	0	-0	-90	1
RightFoot	0	0	0	66.57150701	-66.57150701	-90	1
RightToeBase	0	0	0	0	-90	0	1
[reference]
1	0	0	0	0	-0	0	1.0
2	0	0	0	0	-0	0	1.0
3	0	0	0	0	-0	0	1.0
4	0	0	0	0	-0	0	1.0
5	0	0	0	0	-0	0	1.0
[Hips]
1	1.271830082	8.646289825	-0.05468000099	16.52378845	-90.14186096	-18.55805969	1.0
2	1.271830082	8.646289825	-0.05468000099	171.8069458	-90.54910278	-173.8877869	1.0
3	1.271830082	8.646289825	-0.05468000099	173.3452911	-91.17197418	-175.4940338	1.0
4	1.271830082	8.646289825	-0.05468000099	174.1789551	-91.71774292	-176.4191284	1.0
5	1.271830082	8.646289825	-0.05468000099	174.7118073	-92.29592133	-176.9488983	1.0
[Spine]
1	0	0.7478299737	0	-8.87238884	-0.2359307706	-89.49482727	1.0
2	0	0.7478299737	0	-8.816628456	-0.207738027	-89.35261536	1.0
3	0	0.7478299737	0	-8.711565018	-0.0644384101	-89.26876831	1.0
4	0	0.7478299737	0	-8.605948448	0.07187648118	-89.19510651	1.0
5	0	0.7478299737	0	-8.575772285	0.1390518844	-89.15033722	1.0
[Spine1]
1	0	2.049309969	0	11.77334023	-0.003551052185	-0.8883575201	1.0
2	0	2.049309969	0	11.84335613	0.004480537027	-0.9060881138	1.0
3	0	2.049309969	0	11.84851551	0.04264682159	-0.8831175566	1.0
4	0	2.049309969	0	11.77443409	0.09574909508	-0.8526243567	1.0
5	0	2.049309969	0	11.73523998	0.1062882468	-0.8505693078	1.0
[Neck]
1	0	2.231709957	0	-5.156131268	13.85103035	-86.80621338	1.0
2	0	2.231709957	0	-5.195521355	14.27206993	-86.73519135	1.0
3	0	2.231709957	0	-5.383150101	14.81081772	-86.57058716	1.0
4	0	2.231709957	0	-4.933398247	14.60770607	-86.6678772	1.0
5	0	2.231709957	0	-5.2293396	15.09352779	-86.46300507	1.0
[Head]
1	0	1.413589954	0.1823999882	-9.306909561	6.801805973	-92.56957245	1.0
2	0	1.413589954	0.1823999882	-9.605037689	7.237914562	-92.95611572	1.0
3	0	1.413589954	0.1823999882	-9.369395256	7.81594038	-93.38574982	1.0
4	0	1.413589954	0.1823999882	-10.30553341	7.555160999	-92.9393158	1.0
5	0	1.413589954	0.1823999882	-9.708679199	8.099207878	-93.45477295	1.0
[LeftShoulder]
1	0.3649300039	1.825889945	-0.04271000251	-11.76587009	-7.410985947	3.403412104	1.0
2	0.3649300039	1.825889945	-0.04271000251	-11.90443039	-7.384455204	3.343522549	1.0
3	0.3649300039	1.825889945	-0.04271000251	-11.8681078	-7.390062809	3.300086975	1.0
4	0.3649300039	1.825889945	-0.04271000251	-11.71124172	-7.35483551	3.241270065	1.0
5	0.3649300039	1.825889945	-0.04271000251	-11.81874275	-7.256616116	3.354650021	1.0
[LeftArm]
1	1.24003005	0	0	37.90869522	7.852556705	-81.45479584	1.0
2	1.24003005	0	0	38.50539017	7.767212868	-81.53649139	1.0
3	1.24003005	0	0	38.88383102	7.619027615	-81.64306641	1.0
4	1.24003005	0	0	39.21122742	7.468708038	-81.73168945	1.0
5	1.24003005	0	0	39.15068054	7.540989876	-81.89485931	1.0
[LeftForeArm]
1	2.847419977	0	0	-10.89648819	-12.53166866	-4.813874245	1.0
2	2.847419977	0	0	-11.09549522	-12.86840248	-4.626157284	1.0
3	2.847419977	0	0	-11.2535553	-13.34858418	-4.384784698	1.0
4	2.847419977	0	0	-11.39622307	-13.72986031	-4.141734123	1.0
5	2.847419977	0	0	-11.34822941	-14.0210886	-4.161597729	1.0
[LeftHand]
1	2.258270025	0	0	-11.33284569	-4.156458855	-2.552743435	1.0
2	2.258270025	0	0	-11.51886177	-4.476468563	-2.52662611	1.0
3	2.258270025	0	0	-11.66968918	-4.49960804	-2.478464603	1.0
4	2.258270025	0	0	-11.78643227	-4.7384758	-2.629476786	1.0
5	2.258270025	0	0	-11.75025177	-4.938285351	-2.552969217	1.0
[RightShoulder]
1	-0.3646599948	1.825889945	-0.04271000251	-8.621405602	6.483111858	178.4507751	1.0
2	-0.3646599948	1.825889945	-0.04271000251	-8.353125572	6.503739834	178.5177612	1.0
3	-0.3646599948	1.825889945	-0.04271000251	-8.261882782	6.442890644	178.5673676	1.0
4	-0.3646599948	1.825889945	-0.04271000251	-8.2254076	6.50231123	178.5979919	1.0
5	-0.3646599948	1.825889945	-0.04271000251	-8.284662247	6.650555611	178.5518341	1.0
[RightArm]
1	-1.24003005	0	0	45.85144043	-4.548423767	-97.87543488	1.0
2	-1.24003005	0	0	45.53852844	-4.407022476	-98.02072144	1.0
3	-1.24003005	0	0	45.2726059	-4.380425453	-98.10222626	1.0
4	-1.24003005	0	0	45.29685211	-4.439743996	-98.10300446	1.0
5	-1.24003005	0	0	45.32245255	-4.548624516	-97.98932648	1.0
[RightForeArm]
1	-2.847419977	0	0	1.512273312	12.36741066	179.4986115	1.0
2	-2.847419977	0	0	1.674730301	12.26367092	179.7068176	1.0
3	-2.847419977	0	0	1.799230933	12.12538528	180.0102844	1.0
4	-2.847419977	0	0	1.804248214	11.97867107	180.105835	1.0
5	-2.847419977	0	0	1.833325267	11.93407631	180.0536804	1.0
[RightHand]
1	-2.258270025	0	0	1.335773826	6.343059063	175.8357086	1.0
2	-2.258270025	0	0	1.487712741	6.338283539	176.0544586	1.0
3	-2.258270025	0	0	1.58390975	6.276227474	176.0939484	1.0
4	-2.258270025	0	0	1.585861683	6.234160423	176.1953583	1.0
5	-2.258270025	0	0	1.634894252	6.269111156	176.4800568	1.0
[LeftUpLeg]
1	0.9119900465	0	0	5.976452827	-4.804281712	90.24206543	1.0
2	0.9119900465	0	0	5.816942692	-5.093806267	90.1049118	1.0
3	0.9119900465	0	0	5.842782497	-5.293771744	89.87248993	1.0
4	0.9119900465	0	0	5.840021133	-5.797082424	89.74590302	1.0
5	0.9119900465	0	0	5.648542881	-6.127402782	89.59022522	1.0
[LeftLeg]
1	0	-4.371409893	0	6.119329929	-9.970388412	88.38087463	1.0
2	0	-4.371409893	0	6.346155167	-10.08167934	88.37072754	1.0
3	0	-4.371409893	0	6.357622147	-10.18837452	88.52303314	1.0
4	0	-4.371409893	0	6.428143501	-10.44663906	88.38528442	1.0
5	0	-4.371409893	0	6.664835453	-10.43612385	88.3864212	1.0
[LeftFoot]
1	0	-3.918009996	0	-94.76499176	112.3706207	-43.81767273	1.0
2	0	-3.918009996	0	-95.38130951	112.3720551	-44.43000031	1.0
3	0	-3.918009996	0	-95.98577881	112.3096771	-45.1366539	1.0
4	0	-3.918009996	0	-95.52510834	112.4915314	-44.62487411	1.0
5	0	-3.918009996	0	-96.1958847	112.4169464	-45.28082275	1.0
[LeftToeBase]
1	0	-0.5927900076	1.367989898	0	0	0	1.0
2	0	-0.5927900076	1.367989898	0	0	0	1.0
3	0	-0.5927900076	1.367989898	0	0	0	1.0
4	0	-0.5927900076	1.367989898	0	0	0	1.0
5	0	-0.5927900076	1.367989898	0	0	0	1.0
[RightUpLeg]
1	-0.9119900465	0	0	9.922535896	-2.596415281	92.3292923	1.0
2	-0.9119900465	0	0	9.978169441	-3.215829849	92.18162537	1.0
3	-0.9119900465	0	0	10.05752945	-3.758502483	91.98345947	1.0
4	-0.9119900465	0	0	10.07803822	-4.309342861	91.8351059	1.0
5	-0.9119900465	0	0	10.37741852	-2.136984587	91.92892456	1.0
[RightLeg]
1	0	-4.371409893	0	1.14197278	3.262223244	90.35646057	1.0
2	0	-4.371409893	0	1.17966795	3.275629044	90.31772614	1.0
3	0	-4.371409893	0	1.309836626	3.337456703	90.28898621	1.0
4	0	-4.371409893	0	1.510529041	3.527608395	90.21581268	1.0
5	0	-4.371409893	0	0.8722378612	1.212912083	90.67099762	1.0
[RightFoot]
1	0	-3.918009996	0	24.31775665	63.39345169	66.66423035	1.0
2	0	-3.918009996	0	24.38692856	63.27809906	66.77581787	1.0
3	0	-3.918009996	0	24.34315872	63.15724182	66.86244202	1.0
4	0	-3.918009996	0	24.12529755	62.9658432	66.71743774	1.0
5	0	-3.918009996	0	23.36666107	62.77772141	65.55078888	1.0
[RightToeBase]
1	0	-0.5927900076	1.367989898	0	0	0	1.0
2	0	-0.5927900076	1.367989898	0	0	0	1.0
3	0	-0.5927900076	1.367989898	0	0	0	1.0
4	0	-0.5927900076	1.367989898	0	0	0	1.0
5	0	-0.5927900076	1.367989898	0	0	0	1.0
[EndOfFile]
